<mxfile host="app.diagrams.net" modified="2021-01-02T10:36:18.589Z" agent="5.0 (Macintosh; Intel Mac OS X 10_15_6) AppleWebKit/537.36 (KHTML, like Gecko) Chrome/86.0.4240.193 Safari/537.36" etag="mO-tUeHafimPLOa-XE3p" version="14.1.7" type="github">
  <diagram id="_Os2OOeE7a7N7lWUqL3C" name="Page-1">
    <mxGraphModel dx="1426" dy="771" grid="1" gridSize="10" guides="1" tooltips="1" connect="1" arrows="1" fold="1" page="1" pageScale="1" pageWidth="827" pageHeight="1169" math="0" shadow="0">
      <root>
        <mxCell id="0" />
        <mxCell id="1" parent="0" />
        <mxCell id="vOs9aeOP7bZvGyliyJ-1-1" value="" style="shape=table;html=1;whiteSpace=wrap;startSize=0;container=1;collapsible=0;childLayout=tableLayout;" vertex="1" parent="1">
          <mxGeometry x="120" y="280" width="420" height="40" as="geometry" />
        </mxCell>
        <mxCell id="vOs9aeOP7bZvGyliyJ-1-2" value="" style="shape=partialRectangle;html=1;whiteSpace=wrap;collapsible=0;dropTarget=0;pointerEvents=0;fillColor=none;top=0;left=0;bottom=0;right=0;points=[[0,0.5],[1,0.5]];portConstraint=eastwest;" vertex="1" parent="vOs9aeOP7bZvGyliyJ-1-1">
          <mxGeometry width="420" height="40" as="geometry" />
        </mxCell>
        <mxCell id="vOs9aeOP7bZvGyliyJ-1-3" value="zlbytes" style="shape=partialRectangle;html=1;whiteSpace=wrap;connectable=0;fillColor=#ffe6cc;top=0;left=0;bottom=0;right=0;overflow=hidden;strokeColor=#d79b00;" vertex="1" parent="vOs9aeOP7bZvGyliyJ-1-2">
          <mxGeometry width="60" height="40" as="geometry" />
        </mxCell>
        <mxCell id="vOs9aeOP7bZvGyliyJ-1-4" value="zltail" style="shape=partialRectangle;html=1;whiteSpace=wrap;connectable=0;fillColor=#ffe6cc;top=0;left=0;bottom=0;right=0;overflow=hidden;strokeColor=#d79b00;" vertex="1" parent="vOs9aeOP7bZvGyliyJ-1-2">
          <mxGeometry x="60" width="60" height="40" as="geometry" />
        </mxCell>
        <mxCell id="vOs9aeOP7bZvGyliyJ-1-5" value="zllen" style="shape=partialRectangle;html=1;whiteSpace=wrap;connectable=0;fillColor=#ffe6cc;top=0;left=0;bottom=0;right=0;overflow=hidden;strokeColor=#d79b00;" vertex="1" parent="vOs9aeOP7bZvGyliyJ-1-2">
          <mxGeometry x="120" width="60" height="40" as="geometry" />
        </mxCell>
        <mxCell id="vOs9aeOP7bZvGyliyJ-1-14" value="entry" style="shape=partialRectangle;html=1;whiteSpace=wrap;connectable=0;fillColor=#dae8fc;top=0;left=0;bottom=0;right=0;overflow=hidden;strokeColor=#6c8ebf;" vertex="1" parent="vOs9aeOP7bZvGyliyJ-1-2">
          <mxGeometry x="180" width="60" height="40" as="geometry" />
        </mxCell>
        <mxCell id="vOs9aeOP7bZvGyliyJ-1-17" value="entry" style="shape=partialRectangle;html=1;whiteSpace=wrap;connectable=0;fillColor=#dae8fc;top=0;left=0;bottom=0;right=0;overflow=hidden;strokeColor=#6c8ebf;" vertex="1" parent="vOs9aeOP7bZvGyliyJ-1-2">
          <mxGeometry x="240" width="60" height="40" as="geometry" />
        </mxCell>
        <mxCell id="vOs9aeOP7bZvGyliyJ-1-20" value="..." style="shape=partialRectangle;html=1;whiteSpace=wrap;connectable=0;fillColor=#dae8fc;top=0;left=0;bottom=0;right=0;overflow=hidden;strokeColor=#6c8ebf;" vertex="1" parent="vOs9aeOP7bZvGyliyJ-1-2">
          <mxGeometry x="300" width="60" height="40" as="geometry" />
        </mxCell>
        <mxCell id="vOs9aeOP7bZvGyliyJ-1-23" value="zlend" style="shape=partialRectangle;html=1;whiteSpace=wrap;connectable=0;fillColor=#ffe6cc;top=0;left=0;bottom=0;right=0;overflow=hidden;strokeColor=#d79b00;" vertex="1" parent="vOs9aeOP7bZvGyliyJ-1-2">
          <mxGeometry x="360" width="60" height="40" as="geometry" />
        </mxCell>
      </root>
    </mxGraphModel>
  </diagram>
</mxfile>
